<svg width="648" height="633" viewBox="0 0 648 633" fill="none" xmlns="http://www.w3.org/2000/svg">
<g clip-path="url(#clip0_3830_60)">
<path d="M411.146 142.674H236.636C232.659 142.678 228.847 144.26 226.035 147.072C223.223 149.884 221.641 153.697 221.636 157.674V545.524L219.636 546.134L176.826 559.244C174.797 559.862 172.606 559.651 170.733 558.655C168.86 557.66 167.459 555.961 166.836 553.934L39.4961 137.984C38.8763 135.955 39.0876 133.763 40.0833 131.89C41.079 130.016 42.7777 128.615 44.8061 127.994L110.776 107.794L302.026 49.2537L367.996 29.0536C369 28.7447 370.055 28.6367 371.101 28.7359C372.146 28.8351 373.162 29.1396 374.09 29.6319C375.018 30.1242 375.84 30.7946 376.508 31.6048C377.177 32.415 377.679 33.3491 377.986 34.3537L410.536 140.674L411.146 142.674Z" fill="#F2F2F2"/>
<path d="M449.226 140.674L409.996 12.534C409.344 10.3989 408.277 8.41342 406.856 6.6909C405.436 4.96837 403.69 3.54261 401.718 2.49507C399.747 1.44752 397.588 0.798728 395.366 0.585779C393.143 0.37283 390.901 0.599901 388.766 1.25399L296.016 29.644L104.776 88.194L12.0265 116.594C7.71782 117.917 4.1101 120.896 1.99524 124.876C-0.119617 128.856 -0.568843 133.513 0.746189 137.824L134.826 575.754C135.895 579.234 138.05 582.28 140.977 584.445C143.903 586.61 147.446 587.78 151.087 587.784C152.771 587.785 154.447 587.532 156.056 587.034L219.636 567.574L221.636 566.954V564.864L219.636 565.474L155.466 585.124C151.663 586.283 147.555 585.887 144.044 584.022C140.533 582.156 137.905 578.974 136.736 575.174L2.6666 137.234C2.08769 135.351 1.88592 133.372 2.07285 131.411C2.25977 129.45 2.8317 127.545 3.75592 125.805C4.68014 124.065 5.9385 122.525 7.4589 121.272C8.97929 120.019 10.7319 119.079 12.6163 118.504L105.366 90.104L296.607 31.564L389.357 3.16401C390.786 2.72781 392.272 2.5054 393.766 2.50401C396.973 2.51121 400.094 3.54516 402.671 5.45443C405.248 7.3637 407.146 10.0479 408.087 13.114L447.136 140.674L447.756 142.674H449.837L449.226 140.674Z" fill="#3F3D56"/>
<path d="M122.681 128.321C120.754 128.32 118.877 127.701 117.327 126.555C115.778 125.409 114.636 123.797 114.07 121.954L101.189 79.8825C100.843 78.7524 100.723 77.5651 100.836 76.3886C100.949 75.2121 101.292 74.0693 101.846 73.0255C102.401 71.9817 103.156 71.0574 104.067 70.3053C104.979 69.5532 106.03 68.9881 107.16 68.6423L283.099 14.7785C285.382 14.082 287.847 14.3195 289.955 15.4389C292.062 16.5583 293.639 18.4681 294.34 20.7492L307.221 62.8215C307.917 65.1038 307.679 67.5691 306.559 69.6764C305.44 71.7837 303.531 73.361 301.25 74.0622L125.31 127.926C124.458 128.187 123.572 128.321 122.681 128.321Z" fill="#E21220"/>
<path d="M190.154 45.4546C201.199 45.4546 210.154 36.5003 210.154 25.4546C210.154 14.4089 201.199 5.45459 190.154 5.45459C179.108 5.45459 170.154 14.4089 170.154 25.4546C170.154 36.5003 179.108 45.4546 190.154 45.4546Z" fill="#E21220"/>
<path d="M190.153 38.1193C197.148 38.1193 202.818 32.4491 202.818 25.4547C202.818 18.4602 197.148 12.79 190.153 12.79C183.159 12.79 177.489 18.4602 177.489 25.4547C177.489 32.4491 183.159 38.1193 190.153 38.1193Z" fill="white"/>
<path d="M602.636 582.674H264.636C262.383 582.671 260.222 581.775 258.629 580.181C257.035 578.588 256.139 576.427 256.136 574.174V169.174C256.139 166.92 257.035 164.76 258.629 163.166C260.222 161.573 262.383 160.676 264.636 160.674H602.636C604.89 160.676 607.05 161.573 608.644 163.166C610.237 164.76 611.134 166.92 611.136 169.174V574.174C611.134 576.427 610.237 578.588 608.644 580.181C607.05 581.775 604.89 582.671 602.636 582.674Z" fill="#E6E6E6"/>
<path d="M447.136 140.674H236.636C232.13 140.68 227.809 142.473 224.622 145.66C221.436 148.847 219.643 153.167 219.636 157.674V565.474L221.636 564.864V157.674C221.641 153.697 223.223 149.885 226.035 147.073C228.847 144.261 232.659 142.679 236.636 142.674H447.756L447.136 140.674ZM630.636 140.674H236.636C232.13 140.68 227.809 142.473 224.622 145.66C221.436 148.847 219.643 153.167 219.636 157.674V615.674C219.643 620.181 221.436 624.501 224.622 627.688C227.809 630.874 232.13 632.667 236.636 632.674H630.636C635.143 632.667 639.463 630.874 642.65 627.688C645.837 624.501 647.63 620.181 647.636 615.674V157.674C647.63 153.167 645.837 148.847 642.65 145.66C639.463 142.473 635.143 140.68 630.636 140.674ZM645.636 615.674C645.631 619.651 644.049 623.463 641.237 626.275C638.425 629.087 634.613 630.669 630.636 630.674H236.636C232.659 630.669 228.847 629.087 226.035 626.275C223.223 623.463 221.641 619.651 221.636 615.674V157.674C221.641 153.697 223.223 149.885 226.035 147.073C228.847 144.261 232.659 142.679 236.636 142.674H630.636C634.613 142.679 638.425 144.261 641.237 147.073C644.049 149.885 645.631 153.697 645.636 157.674V615.674Z" fill="#3F3D56"/>
<path d="M525.636 184.674H341.636C339.25 184.671 336.963 183.722 335.275 182.035C333.588 180.348 332.639 178.06 332.636 175.674V131.674C332.639 129.288 333.588 127 335.276 125.313C336.963 123.626 339.25 122.677 341.636 122.674H525.636C528.023 122.677 530.31 123.626 531.997 125.313C533.685 127 534.634 129.288 534.636 131.674V175.674C534.634 178.06 533.685 180.348 531.997 182.035C530.31 183.722 528.023 184.671 525.636 184.674Z" fill="#E21220"/>
<path d="M433.636 125.674C444.682 125.674 453.636 116.72 453.636 105.674C453.636 94.6281 444.682 85.6738 433.636 85.6738C422.591 85.6738 413.636 94.6281 413.636 105.674C413.636 116.72 422.591 125.674 433.636 125.674Z" fill="#E21220"/>
<path d="M433.636 117.856C440.364 117.856 445.818 112.402 445.818 105.674C445.818 98.9462 440.364 93.4922 433.636 93.4922C426.908 93.4922 421.454 98.9462 421.454 105.674C421.454 112.402 426.908 117.856 433.636 117.856Z" fill="white"/>
</g>
<defs>
<clipPath id="clip0_3830_60">
<rect width="647.636" height="632.174" fill="white" transform="translate(0 0.5)"/>
</clipPath>
</defs>
</svg>
