<svg width="861" height="572" viewBox="0 0 861 572" fill="none" xmlns="http://www.w3.org/2000/svg">
<g clip-path="url(#clip0_3830_71)">
<path d="M435.735 161.027C428.066 148.343 418.978 134.799 404.746 130.658C388.264 125.861 371.333 135.389 356.971 144.792C314.022 172.912 272.661 203.386 233.078 236.075L233.121 236.568C263.938 234.442 294.755 232.317 325.572 230.192C347.837 228.657 370.868 226.909 390.544 216.376C398.01 212.38 405.289 207.041 413.749 206.669C424.261 206.206 433.427 213.548 440.63 221.218C483.237 266.589 495.567 335.972 543.368 375.834C513.226 301.499 477.236 229.671 435.735 161.027Z" fill="#F2F2F2"/>
<path d="M697.636 545.855C692.925 539.906 690.999 538.512 686.352 532.508C648.509 483.564 612.94 432.966 579.644 380.715C557.028 345.229 535.534 309.061 515.161 272.211C505.462 254.692 496.029 237.036 486.861 219.242C479.748 205.446 472.793 191.566 465.997 177.604C464.053 173.617 462.165 169.611 460.286 165.595C455.858 156.153 451.512 146.665 446.846 137.351C441.529 126.735 435.057 115.606 425.294 108.474C420.85 105.095 415.537 103.05 409.975 102.579C402.027 102.066 394.693 105.348 387.799 108.932C337.361 135.233 290.14 168.208 247.43 205.73C204.61 243.336 166.336 285.822 133.388 332.321C132.38 333.76 129.996 332.385 131.014 330.937C135.02 325.272 139.106 319.667 143.271 314.124C195.059 245.246 258.56 186.015 330.87 139.138C343.036 131.255 355.43 123.74 368.053 116.596C374.415 112.993 380.805 109.436 387.304 106.099C393.676 102.827 400.441 99.8839 407.72 99.7739C432.49 99.3889 445.315 127.441 454.125 146.316C456.894 152.257 459.696 158.179 462.531 164.083C473.248 186.497 484.377 208.706 495.919 230.711C503.042 244.297 510.321 257.803 517.756 271.23C540.894 313.042 565.486 354.008 591.534 394.127C626.04 447.27 660.271 494.216 699.58 543.912C700.662 545.287 698.728 547.249 697.636 545.855Z" fill="#E4E4E4"/>
<path d="M244.982 191.878C243.543 190.274 242.113 188.669 240.664 187.065C229.242 174.433 216.985 161.947 201.3 154.705C193.821 151.142 185.656 149.25 177.373 149.158C168.811 149.186 160.441 151.432 152.53 154.576C148.789 156.07 145.131 157.766 141.529 159.572C137.413 161.644 133.37 163.854 129.346 166.081C121.792 170.261 114.335 174.625 106.977 179.172C92.337 188.22 78.1551 197.959 64.4318 208.388C57.3177 213.797 50.3505 219.383 43.53 225.146C37.1863 230.5 30.9709 235.997 24.8839 241.638C23.5822 242.839 21.6386 240.896 22.9403 239.695C24.5445 238.2 26.1672 236.715 27.7898 235.249C32.3735 231.105 37.0305 227.041 41.761 223.056C50.3872 215.777 59.2367 208.779 68.3095 202.063C82.4182 191.612 97.0125 181.87 112.092 172.837C119.628 168.327 127.268 164.006 135.011 159.875C137.349 158.628 139.714 157.409 142.106 156.254C147.535 153.515 153.176 151.219 158.974 149.387C167.187 146.731 175.877 145.877 184.45 146.885C192.728 148.089 200.703 150.848 207.955 155.016C223.356 163.624 235.301 176.935 246.925 189.925C248.099 191.245 246.164 193.198 244.982 191.878Z" fill="#E4E4E4"/>
<path d="M560.542 322.785L597.447 309.287L615.77 302.585C621.738 300.402 627.691 297.918 633.86 296.355C639.221 294.823 644.913 294.896 650.234 296.563C654.978 298.319 659.321 301.012 663.005 304.48C666.768 307.945 670.269 311.684 673.48 315.666C677.469 320.461 681.399 325.305 685.347 330.133C701.641 350.061 717.829 370.074 733.91 390.175C749.991 410.275 765.964 430.46 781.83 450.731C797.735 471.051 813.53 491.456 829.216 511.946C831.137 514.457 833.057 516.968 834.975 519.481C836.035 520.869 838.425 519.5 837.35 518.093C821.548 497.396 805.637 476.785 789.615 456.258C773.554 435.682 757.382 415.193 741.099 394.792C724.816 374.391 708.423 354.079 691.92 333.855C687.809 328.816 683.691 323.783 679.566 318.756C676.086 314.515 672.646 310.229 668.829 306.282C661.824 299.037 653.072 292.634 642.595 292.46C636.435 292.358 630.474 294.313 624.751 296.383C618.581 298.615 612.426 300.889 606.265 303.142L569.102 316.735L559.811 320.133C558.163 320.736 558.875 323.395 560.542 322.785Z" fill="#E4E4E4"/>
<path d="M196.443 170.6C177.689 160.962 153.672 162.849 136.438 174.891C169.31 180.563 201.822 188.151 233.809 197.617C220.526 189.833 210.136 177.638 196.443 170.6Z" fill="#F2F2F2"/>
<path d="M136.253 174.858L132.643 177.793C133.864 176.766 135.134 175.803 136.438 174.891C136.376 174.881 136.315 174.869 136.253 174.858Z" fill="#F2F2F2"/>
<path d="M661.615 322.92C657.982 318.498 654.054 313.867 648.621 312.071L643.548 312.271C682.165 380.51 734.322 440.137 796.815 487.492C751.748 432.635 706.682 377.777 661.615 322.92Z" fill="#F2F2F2"/>
<path d="M346.149 286.44C348.497 294.97 353.786 302.394 361.081 307.399C363.901 309.319 367.237 311.161 368.202 314.434C368.71 316.52 368.397 318.721 367.329 320.584C366.262 322.422 364.964 324.116 363.467 325.625L363.331 326.137C356.332 321.99 349.674 316.744 345.808 309.586C341.942 302.428 341.403 293.047 346.149 286.44Z" fill="#F2F2F2"/>
<path d="M579.149 489.44C581.497 497.97 586.786 505.394 594.081 510.399C596.901 512.319 600.237 514.161 601.202 517.434C601.71 519.52 601.397 521.721 600.329 523.584C599.262 525.422 597.964 527.116 596.467 528.625L596.331 529.137C589.332 524.99 582.674 519.744 578.808 512.586C574.942 505.428 574.403 496.047 579.149 489.44Z" fill="#F2F2F2"/>
<path d="M114.149 475.44C116.497 483.97 121.786 491.394 129.081 496.399C131.901 498.319 135.237 500.161 136.202 503.434C136.71 505.52 136.397 507.721 135.329 509.584C134.262 511.422 132.964 513.116 131.467 514.625L131.331 515.137C124.332 510.99 117.674 505.744 113.808 498.586C109.942 491.428 109.403 482.047 114.149 475.44Z" fill="#F2F2F2"/>
<path d="M649.249 102.5C677.415 102.5 700.249 79.6665 700.249 51.5C700.249 23.3335 677.415 0.5 649.249 0.5C621.082 0.5 598.249 23.3335 598.249 51.5C598.249 79.6665 621.082 102.5 649.249 102.5Z" fill="#E21220"/>
<path d="M741.284 12.3704C716.567 9.02949 688.349 22.3891 681.943 46.494C680.328 42.2081 677.393 38.5465 673.562 36.038C669.73 33.5295 665.2 32.3041 660.626 32.5388C656.052 32.7735 651.671 34.4562 648.116 37.3437C644.562 40.2312 642.017 44.1741 640.849 48.6027L643.679 50.6293C696.647 62.0836 751.476 61.8357 804.338 49.903C787.145 31.834 766.001 15.7113 741.284 12.3704Z" fill="#F0F0F0"/>
<path d="M635.284 80.3704C610.567 77.0295 582.349 90.3891 575.943 114.494C574.328 110.208 571.393 106.546 567.562 104.038C563.73 101.53 559.2 100.304 554.626 100.539C550.052 100.774 545.671 102.456 542.116 105.344C538.562 108.231 536.017 112.174 534.849 116.603L537.679 118.629C590.647 130.084 645.476 129.836 698.338 117.903C681.145 99.834 660.001 83.7113 635.284 80.3704Z" fill="#F0F0F0"/>
<path d="M851.011 93.2283C850.909 93.2285 850.807 93.2127 850.709 93.1814C586.303 9.56326 353.265 20.4978 204.33 44.3953C184.061 47.6463 163.738 51.4011 143.926 55.5564C138.868 56.616 133.62 57.7517 128.329 58.9343C122.01 60.3416 115.775 61.7908 109.797 63.24C107.215 63.8513 104.683 64.4676 102.202 65.0886C98.4439 66.0164 94.6304 66.9832 90.5425 68.0456C85.9746 69.2234 81.3335 70.4587 76.7451 71.7175C76.7283 71.7234 76.7112 71.7283 76.6939 71.7322L76.6943 71.7332C71.5117 73.1482 66.3564 74.6043 61.3711 76.0584C58.6729 76.8377 56.0674 77.6062 53.5718 78.365C53.293 78.4422 53.0459 78.5164 52.7954 78.5925L52.2593 78.7556C51.9487 78.8503 51.6421 78.9431 51.3355 79.031L51.3159 79.0369L51.3164 79.0379L50.5049 79.2899C49.5371 79.5829 48.5928 79.869 47.6641 80.1541C23.1191 87.7205 9.62598 93.1034 9.49268 93.1561C9.37078 93.2049 9.24047 93.2293 9.10915 93.2278C8.97784 93.2263 8.8481 93.1989 8.72736 93.1473C8.60662 93.0956 8.49722 93.0208 8.40543 92.9268C8.31364 92.8329 8.24125 92.7218 8.19239 92.5999C8.14353 92.478 8.11917 92.3477 8.12067 92.2164C8.12218 92.0851 8.14953 91.9554 8.20118 91.8346C8.25282 91.7139 8.32773 91.6045 8.42165 91.5127C8.51557 91.4209 8.62664 91.3485 8.74854 91.2996C8.88282 91.2469 22.4419 85.8368 47.0762 78.242C48.0083 77.9559 48.9551 77.6698 49.9258 77.3758L50.6797 77.1414C50.7056 77.1317 50.7314 77.1239 50.7578 77.116C51.063 77.0291 51.3677 76.9364 51.6772 76.8426L52.2144 76.6795C52.4819 76.5985 52.7456 76.5184 53.0156 76.4442C55.4941 75.6903 58.1084 74.9198 60.8135 74.1375C65.8008 72.6825 70.9609 71.2264 76.1475 69.8094C76.1636 69.8035 76.1802 69.7996 76.1963 69.7948C80.8008 68.5321 85.459 67.2908 90.0415 66.1092C94.1358 65.0457 97.9565 64.077 101.721 63.1473C104.213 62.5272 106.749 61.9096 109.331 61.2947C115.316 59.8436 121.563 58.3924 127.894 56.9822C133.193 55.7986 138.449 54.66 143.516 53.5994C163.359 49.4373 183.713 45.6766 204.013 42.4207C353.162 18.4891 586.533 7.53687 851.312 91.2751C851.54 91.347 851.734 91.498 851.86 91.7008C851.986 91.9035 852.036 92.1447 851.999 92.3807C851.963 92.6167 851.843 92.8319 851.662 92.9873C851.481 93.1428 851.25 93.2283 851.011 93.2283Z" fill="#CCCCCC"/>
<path d="M262.989 420.34C262.643 419.327 262.06 418.412 261.289 417.67C261.004 417.406 260.696 417.168 260.369 416.96C257.759 415.22 253.859 414.83 251.379 416.96C251.129 417.177 250.898 417.414 250.689 417.67C249.949 418.58 249.189 419.47 248.409 420.34C247.129 421.8 245.819 423.21 244.449 424.58C244.059 424.96 243.669 425.35 243.269 425.73C243.039 425.96 242.809 426.18 242.579 426.4C241.699 427.24 240.799 428.05 239.889 428.85C239.409 429.28 238.929 429.7 238.439 430.11C237.709 430.72 236.979 431.33 236.239 431.92C236.169 431.97 236.099 432.02 236.029 432.08C236.009 432.09 235.999 432.11 235.979 432.12C235.969 432.12 235.959 432.12 235.949 432.14C235.922 432.151 235.898 432.168 235.879 432.19C235.659 432.34 235.509 432.44 235.399 432.53C235.439 432.51 235.479 432.48 235.519 432.46C235.339 432.6 235.149 432.74 234.969 432.88C233.219 434.17 231.429 435.41 229.599 436.57C225.071 439.468 220.316 441.993 215.379 444.12C215.049 444.25 214.709 444.39 214.369 444.52C201.443 449.815 187.422 451.882 173.519 450.54C172.099 450.43 170.679 450.28 169.259 450.09C167.619 449.85 165.989 449.56 164.369 449.23C158.201 447.999 152.167 446.178 146.349 443.79C139.071 440.457 132.149 436.397 125.689 431.67C124.689 430.96 123.679 430.25 122.669 429.56C123.819 426.74 124.949 423.92 126.049 421.08C126.599 419.71 127.129 418.34 127.649 416.96C131.739 406.33 135.579 395.6 139.259 384.83C142.979 373.92 146.489 362.947 149.789 351.91C150.129 350.79 150.459 349.67 150.779 348.55C152.509 342.72 154.169 336.877 155.759 331.02C155.909 330.45 156.069 329.89 156.209 329.32C156.669 327.64 157.119 325.96 157.559 324.28C158.559 320.49 156.299 315.96 152.319 315.05C150.403 314.559 148.37 314.83 146.651 315.808C144.931 316.785 143.657 318.392 143.099 320.29C142.669 321.91 142.239 323.52 141.799 325.14C139.689 332.97 137.469 340.773 135.139 348.55C134.799 349.67 134.459 350.79 134.119 351.91C128.979 368.85 123.335 385.62 117.189 402.22C116.449 404.23 115.699 406.233 114.939 408.23C114.569 409.21 114.199 410.19 113.819 411.17C113.089 413.1 112.339 415.03 111.589 416.96C111.159 418.09 110.719 419.22 110.279 420.34C109.989 421.05 109.709 421.76 109.429 422.46C106.578 421.436 103.624 420.725 100.619 420.34L100.139 420.28C97.8092 420 95.4533 420.02 93.1288 420.34C89.6499 420.746 86.3026 421.911 83.3235 423.753C80.3445 425.595 77.8065 428.069 75.8888 431C71.1188 438.51 71.1788 449.25 77.8688 455.63C84.7588 462.2 95.1888 462.15 103.299 458.04C107.597 455.715 111.22 452.318 113.819 448.18C114.814 446.68 115.729 445.128 116.559 443.53C116.769 443.67 116.979 443.81 117.189 443.96C117.989 444.52 118.789 445.09 119.579 445.65C124.182 448.985 129.033 451.963 134.089 454.56C144.961 459.965 156.664 463.504 168.709 465.03C168.979 465.06 169.239 465.1 169.509 465.13C170.839 465.3 172.179 465.43 173.519 465.54C192.741 466.989 211.987 463.055 229.099 454.18C230.549 453.43 231.985 452.643 233.409 451.82C235.619 450.54 237.779 449.18 239.889 447.74C241.039 446.96 242.159 446.17 243.269 445.34C248.119 441.767 252.641 437.768 256.779 433.39C258.349 431.74 259.852 430.037 261.289 428.28C262.647 426.843 263.43 424.957 263.489 422.98C263.481 422.077 263.312 421.183 262.989 420.34ZM97.3988 444.16C97.6088 444.01 97.8188 443.85 98.0188 443.69C97.9589 443.84 97.6688 444.01 97.3988 444.16ZM100.609 440.93C100.379 441.19 100.169 441.45 99.9388 441.71C99.2391 442.493 98.4874 443.228 97.6888 443.91C97.5788 444.01 97.4588 444.11 97.3388 444.2C97.3375 444.2 97.3362 444.2 97.335 444.201C97.3337 444.201 97.3326 444.202 97.3317 444.203C97.3308 444.204 97.33 444.205 97.3295 444.206C97.329 444.207 97.3288 444.209 97.3288 444.21C97.1844 444.275 97.0441 444.348 96.9088 444.43C96.4788 444.69 96.0388 444.93 95.5888 445.15C94.7078 445.474 93.8013 445.725 92.8788 445.9C92.17 445.952 91.4586 445.958 90.7488 445.92H90.7288C90.239 445.811 89.7551 445.678 89.2788 445.52C89.0388 445.4 88.8088 445.26 88.5788 445.12C88.4888 445.04 88.4088 444.96 88.3588 444.91C88.2611 444.821 88.1709 444.724 88.0889 444.62C88.0889 444.619 88.0887 444.617 88.0882 444.616C88.0877 444.615 88.087 444.614 88.086 444.613C88.0851 444.612 88.084 444.611 88.0827 444.611C88.0815 444.61 88.0802 444.61 88.0789 444.61C87.9688 444.41 87.8488 444.21 87.7389 444.01C87.7332 444.005 87.7296 443.998 87.7289 443.99C87.6489 443.74 87.5789 443.48 87.5189 443.22C87.4972 442.763 87.5005 442.306 87.5289 441.85C87.6631 441.211 87.8435 440.583 88.0689 439.97C88.2714 439.536 88.5018 439.115 88.7589 438.71C88.7789 438.67 88.8789 438.51 88.9889 438.33C88.9989 438.32 88.9989 438.32 88.9989 438.31C89.1489 438.14 89.2989 437.96 89.4589 437.8C89.7289 437.5 90.0189 437.24 90.3089 436.97C90.8729 436.601 91.4571 436.264 92.0589 435.96C93.0135 435.621 93.9932 435.357 94.9889 435.17C96.4572 435.053 97.9329 435.067 99.3989 435.21C100.787 435.451 102.157 435.788 103.499 436.22C102.686 437.798 101.76 439.315 100.729 440.76C100.689 440.82 100.649 440.88 100.609 440.93ZM89.4888 437.64C89.4007 437.781 89.2967 437.912 89.1788 438.03C89.2582 437.883 89.3632 437.751 89.4888 437.64Z" fill="#3F3D56"/>
<path d="M232.929 318.21C232.839 321.35 232.749 324.49 232.659 327.63C232.469 334.6 232.272 341.573 232.069 348.55C231.859 356.4 231.639 364.247 231.409 372.09C231.299 376.14 231.185 380.19 231.069 384.24C230.759 395.15 230.452 406.057 230.149 416.96C230.119 418.09 230.079 419.21 230.049 420.34C229.899 425.75 229.749 431.16 229.599 436.57C229.429 442.44 229.262 448.31 229.099 454.18C228.979 458.58 228.855 462.983 228.729 467.39C227.829 499.32 226.929 531.25 226.029 563.18C225.991 565.157 225.188 567.043 223.79 568.441C222.392 569.84 220.506 570.642 218.529 570.68C216.545 570.664 214.646 569.869 213.243 568.466C211.84 567.063 211.045 565.164 211.029 563.18C211.529 545.22 212.035 527.26 212.549 509.3C212.999 493.06 213.455 476.82 213.919 460.58C214.069 455.23 214.219 449.877 214.369 444.52C214.599 436.46 214.825 428.4 215.049 420.34C215.079 419.21 215.119 418.09 215.149 416.96C215.169 415.97 215.199 414.99 215.229 414C215.669 398.35 216.109 382.697 216.549 367.04C216.729 360.88 216.902 354.717 217.069 348.55C217.269 341.52 217.469 334.493 217.669 327.47C217.759 324.38 217.839 321.3 217.929 318.21C217.967 316.233 218.769 314.347 220.168 312.949C221.566 311.55 223.452 310.748 225.429 310.71C227.413 310.726 229.311 311.521 230.714 312.924C232.117 314.327 232.913 316.226 232.929 318.21Z" fill="#3F3D56"/>
<path d="M644.357 320.291C636.492 350.071 627.093 379.424 616.196 408.232C613.189 416.179 610.113 424.109 606.824 431.944L607.58 430.153C606.113 433.885 604.238 437.443 601.991 440.765C601.838 440.979 601.682 441.191 601.524 441.401C602.301 440.407 602.449 440.211 601.967 440.812C601.713 441.113 601.462 441.414 601.199 441.707C600.499 442.491 599.748 443.227 598.95 443.911C598.749 444.082 598.545 444.251 598.338 444.415L599.276 443.686C599.167 443.943 598.404 444.283 598.166 444.429C597.395 444.894 596.591 445.301 595.761 445.647L597.552 444.891C596.191 445.44 594.772 445.829 593.321 446.052L595.315 445.784C593.89 445.981 592.446 445.996 591.017 445.83L593.011 446.098C591.842 445.937 590.698 445.629 589.606 445.181L591.398 445.937C590.815 445.683 590.254 445.384 589.719 445.041C589.447 444.864 588.614 444.232 589.704 445.065C590.837 445.931 589.85 445.14 589.616 444.91C589.422 444.718 589.247 444.51 589.057 444.315C588.174 443.41 590.053 445.871 589.453 444.813C589.133 444.283 588.84 443.737 588.575 443.176L589.331 444.968C588.987 444.115 588.743 443.226 588.603 442.317L588.871 444.31C588.728 443.18 588.727 442.036 588.868 440.906L588.6 442.899C588.784 441.637 589.117 440.402 589.595 439.219L588.839 441.011C589.172 440.215 589.566 439.447 590.017 438.712C590.225 438.333 590.469 437.974 590.745 437.641C590.794 437.657 589.477 439.154 590.176 438.398C590.359 438.2 590.53 437.992 590.715 437.796C591.011 437.482 591.328 437.195 591.641 436.898C592.685 435.904 590.179 437.864 591.384 437.077C592.258 436.503 593.177 436.001 594.133 435.578L592.342 436.334C593.943 435.676 595.622 435.226 597.337 434.994L595.343 435.262C597.491 435.015 599.662 435.041 601.804 435.338L599.81 435.071C602.522 435.482 605.173 436.227 607.702 437.291L605.91 436.534C611.3 438.848 616.073 442.284 620.838 445.652C625.44 448.985 630.29 451.963 635.344 454.559C646.217 459.965 657.921 463.505 669.967 465.033C687.242 467.149 704.772 464.893 720.949 458.471C737.126 452.05 751.431 441.669 762.552 428.281C763.909 426.842 764.691 424.954 764.749 422.977C764.735 420.991 763.947 419.089 762.552 417.674C759.801 415.148 754.603 414.435 751.945 417.674C749.427 420.749 746.72 423.663 743.839 426.401C742.494 427.677 741.113 428.914 739.697 430.111C738.887 430.795 738.067 431.465 737.236 432.122C736.842 432.433 735.617 433.26 737.499 431.925C737.067 432.231 736.654 432.565 736.228 432.879C729.93 437.522 723.106 441.404 715.896 444.444L717.688 443.688C709.951 446.933 701.826 449.159 693.516 450.311L695.51 450.043C686.962 451.167 678.302 451.154 669.757 450.005L671.75 450.273C663.207 449.099 654.852 446.824 646.893 443.502L648.685 444.258C641.005 440.86 633.717 436.639 626.949 431.667C623.426 429.059 619.711 426.721 615.836 424.673C611.321 422.367 606.432 420.881 601.398 420.285C591.959 419.174 582.341 422.85 577.152 431.005C572.376 438.51 572.438 449.249 579.125 455.63C586.013 462.203 596.444 462.147 604.561 458.036C612.378 454.076 617.074 445.85 620.376 438.094C627.807 420.639 634.386 402.78 640.516 384.831C646.58 367.073 652.08 349.135 657.014 331.018C657.625 328.774 658.228 326.528 658.821 324.279C659.822 320.49 657.56 315.959 653.583 315.053C651.666 314.56 649.632 314.83 647.911 315.807C646.19 316.785 644.916 318.392 644.357 320.291Z" fill="#3F3D56"/>
<path d="M719.189 318.209L716.49 414.003L713.804 509.297L712.286 563.18C712.303 565.164 713.098 567.062 714.501 568.465C715.904 569.868 717.802 570.664 719.786 570.68C721.763 570.642 723.649 569.84 725.047 568.441C726.445 567.043 727.248 565.158 727.286 563.18L729.985 467.387L732.671 372.093L734.189 318.209C734.173 316.226 733.377 314.328 731.974 312.925C730.571 311.522 728.673 310.726 726.689 310.709C724.712 310.748 722.827 311.55 721.428 312.948C720.03 314.347 719.228 316.232 719.189 318.209Z" fill="#3F3D56"/>
<path opacity="0.2" d="M459.591 536.435H461.92V430.393H516.249V428.071H461.92V383.326H503.876C503.261 382.544 502.628 381.772 501.977 381.009H461.92V351.456C461.15 351.128 460.374 350.811 459.591 350.513V381.009H413.939V343.144C413.157 343.18 412.387 343.234 411.61 343.299V381.009H375.19V352.758C374.408 353.104 373.638 353.469 372.873 353.851V381.009H342.258V383.326H372.873V428.071H342.258V430.393H372.873V536.435H375.19V430.393C379.973 430.392 384.71 431.334 389.129 433.164C393.548 434.994 397.563 437.676 400.945 441.059C404.327 444.441 407.01 448.456 408.84 452.875C410.67 457.294 411.611 462.031 411.61 466.814V536.435H413.939V430.393H459.591V536.435ZM375.19 428.071V383.326H411.61V428.071H375.19ZM413.939 428.071V383.326H414.853C420.728 383.327 426.546 384.484 431.975 386.733C437.403 388.982 442.335 392.278 446.489 396.433C450.643 400.588 453.939 405.52 456.187 410.949C458.435 416.377 459.592 422.195 459.591 428.071H413.939Z" fill="black"/>
<path d="M445.369 504.64C442.437 517.719 435.414 529.523 425.319 538.34C424.579 538.98 423.839 539.6 423.069 540.21C421.199 540.38 419.342 540.553 417.499 540.73C415.969 540.87 414.459 541.02 412.959 541.16L412.689 541.19L412.499 539.55L411.739 532.91C408.791 528.097 406.963 522.682 406.392 517.066C405.821 511.45 406.52 505.778 408.439 500.47C411.079 493.35 415.859 487.06 420.559 480.82C427.049 472.2 433.359 463.68 433.589 453.17C436.782 457.257 439.437 461.737 441.489 466.5C439.553 467.411 437.814 468.692 436.369 470.27C435.959 470.72 435.549 471.35 435.829 471.89C436.069 472.35 436.669 472.46 437.189 472.52C438.439 472.65 439.699 472.78 440.949 472.91C441.949 473.02 442.949 473.12 443.949 473.23C445.159 477.201 445.979 481.28 446.399 485.41C447.073 491.834 446.725 498.324 445.369 504.64Z" fill="#3F3D56"/>
<path d="M478.569 478.43C472.669 482.72 469.219 488.89 466.539 495.69C463.792 496.569 461.321 498.147 459.369 500.27C458.959 500.72 458.549 501.35 458.829 501.89C459.069 502.35 459.669 502.46 460.189 502.52C461.439 502.65 462.699 502.78 463.949 502.91C461.269 510.95 458.809 519.27 454.069 526.06C450.916 530.543 446.807 534.269 442.039 536.97C440.738 537.711 439.396 538.375 438.019 538.96C432.939 539.35 427.955 539.767 423.069 540.21C421.199 540.38 419.342 540.553 417.499 540.73C415.969 540.87 414.459 541.02 412.959 541.16C412.949 540.61 412.949 540.06 412.959 539.51C413.275 524.859 418.665 510.771 428.209 499.65C428.659 499.13 429.119 498.62 429.589 498.11C434.424 492.946 440.11 488.65 446.399 485.41C456.308 480.257 467.415 477.848 478.569 478.43Z" fill="#E21220"/>
<path d="M419.229 535.6L418.079 539L417.499 540.73C415.969 540.87 414.459 541.02 412.959 541.16L412.689 541.19C411.029 541.36 409.379 541.53 407.729 541.7C407.299 541.2 406.869 540.69 406.449 540.17C396.011 527.53 391.001 511.273 392.513 494.95C394.025 478.628 401.937 463.567 414.519 453.06C413.199 459.97 414.739 466.59 417.269 473.16C416.999 473.27 416.739 473.38 416.489 473.5C414.553 474.411 412.814 475.692 411.369 477.27C410.959 477.72 410.549 478.35 410.829 478.89C411.069 479.35 411.669 479.46 412.189 479.52C413.439 479.65 414.699 479.78 415.949 479.91C416.949 480.02 417.949 480.12 418.949 480.23C419.419 480.28 419.889 480.33 420.359 480.38C420.429 480.53 420.489 480.67 420.559 480.82C423.409 487 426.479 493.21 428.209 499.65C428.643 501.266 428.983 502.905 429.229 504.56C429.999 510.153 429.5 515.847 427.769 521.22C426.037 526.594 423.119 531.509 419.229 535.6Z" fill="#E21220"/>
<path d="M519.887 390.561C511.278 373.768 497.941 359.64 482.255 349.257C466.518 338.889 448.461 332.574 429.692 330.877C427.232 330.653 424.765 330.523 422.293 330.484C419.372 330.441 375.427 343.116 360.706 353.466C345.993 363.691 333.89 377.23 325.373 392.993C316.871 408.843 312.689 426.65 313.247 444.627C313.976 462.712 319.017 480.361 327.95 496.103C336.761 511.793 349.272 525.094 364.394 534.848C379.732 544.635 395.139 570.584 413.249 571.5C431.494 572.423 452.303 547.945 468.944 540.513C485.585 533.019 499.971 521.294 510.669 506.508C521.065 492.017 527.79 475.221 530.268 457.56C532.842 439.477 531.642 420.827 525.467 403.544C523.883 399.103 522.019 394.766 519.887 390.561C518.107 387.055 512.891 385.765 509.625 387.87C507.943 388.906 506.725 390.55 506.224 392.461C505.723 394.373 505.977 396.403 506.935 398.131C507.98 400.19 508.952 402.282 509.85 404.409L509.094 402.617C512.494 410.792 514.806 419.379 515.971 428.156L515.703 426.162C516.941 435.684 516.919 445.328 515.636 454.844L515.904 452.85C514.608 462.366 512.068 471.67 508.35 480.525L509.106 478.733C507.193 483.251 504.964 487.628 502.434 491.831C501.152 493.955 499.792 496.029 498.354 498.053C497.722 498.941 497.071 499.814 496.415 500.684C495.558 501.82 497.582 499.201 496.697 500.315C496.546 500.504 496.397 500.695 496.245 500.884C495.791 501.452 495.33 502.014 494.863 502.572C491.745 506.291 488.343 509.763 484.687 512.955C483.776 513.75 482.85 514.527 481.909 515.286C481.44 515.665 480.977 516.059 480.488 516.411C480.507 516.398 482.068 515.212 481.144 515.9C480.853 516.117 480.565 516.336 480.274 516.552C478.334 517.989 476.343 519.353 474.3 520.644C469.596 523.607 464.662 526.187 459.544 528.357L461.336 527.601C452.508 531.317 443.229 533.856 433.739 535.153L435.733 534.885C426.248 536.167 416.634 536.184 407.144 534.935L409.138 535.203C400.513 534.045 392.076 531.764 384.042 528.419L385.834 529.175C381.181 527.21 376.694 524.872 372.418 522.184C370.302 520.85 368.241 519.435 366.234 517.936C365.948 517.723 365.664 517.506 365.379 517.291C364.464 516.6 366.037 517.801 366.05 517.809C365.517 517.427 365.005 517.018 364.515 516.584C363.546 515.795 362.592 514.988 361.653 514.162C357.897 510.855 354.39 507.275 351.16 503.453C350.351 502.497 349.56 501.527 348.786 500.542C348.451 500.116 347.839 499.252 349.19 501.071C349.012 500.832 348.828 500.597 348.649 500.359C348.218 499.787 347.792 499.211 347.373 498.631C345.904 496.599 344.508 494.517 343.185 492.385C340.195 487.559 337.585 482.508 335.38 477.277L336.136 479.068C332.527 470.482 330.059 461.459 328.795 452.231L329.063 454.225C327.923 445.719 327.907 437.1 329.015 428.589L328.747 430.583C329.883 422.342 332.1 414.286 335.341 406.624L334.585 408.416C336.625 403.619 339.03 398.987 341.781 394.559C343.158 392.344 344.617 390.182 346.158 388.075C346.508 387.596 346.863 387.12 347.221 386.647C347.545 386.219 348.436 385.153 346.915 387.035C347.064 386.851 347.208 386.661 347.355 386.475C348.201 385.403 349.067 384.348 349.954 383.31C353.312 379.379 356.949 375.696 360.838 372.289C361.82 371.428 362.819 370.585 363.832 369.76C364.293 369.385 364.757 369.014 365.223 368.647C365.41 368.5 365.599 368.356 365.785 368.209C363.787 369.798 365.23 368.641 365.683 368.301C367.773 366.736 369.918 365.249 372.119 363.84C377.011 360.711 382.158 357.999 387.505 355.732L385.714 356.488C393.474 353.23 427.854 345.539 434.108 346.379L432.114 346.111C441.305 347.394 450.288 349.876 458.834 353.493L457.042 352.737C461.373 354.576 465.581 356.69 469.642 359.066C471.671 360.256 473.66 361.51 475.61 362.829C476.532 363.453 477.445 364.091 478.348 364.744C478.799 365.07 479.248 365.399 479.694 365.733C479.942 365.918 480.188 366.105 480.435 366.291C481.475 367.07 479.004 365.162 480.093 366.024C483.739 368.888 487.202 371.979 490.461 375.277C492.062 376.907 493.607 378.589 495.098 380.322C495.862 381.212 496.611 382.114 497.344 383.03C497.709 383.485 498.949 385.131 497.429 383.114C497.8 383.607 498.176 384.097 498.543 384.593C501.703 388.871 504.51 393.398 506.935 398.131C508.728 401.629 513.922 402.933 517.196 400.822C518.879 399.787 520.098 398.142 520.599 396.231C521.1 394.319 520.845 392.289 519.887 390.561Z" fill="#3F3D56"/>
<path d="M432.497 512.956C431.723 512.991 430.956 512.788 430.301 512.373C429.647 511.959 429.135 511.353 428.836 510.638C428.537 509.923 428.465 509.133 428.63 508.376C428.795 507.619 429.188 506.93 429.757 506.404C429.853 506.026 429.921 505.753 430.016 505.375C429.982 505.292 429.948 505.21 429.914 505.127C426.434 496.83 404.229 519.961 403.269 527.759C402.846 531.206 403.024 534.701 403.796 538.087C396.603 522.397 392.868 505.344 392.844 488.084C392.843 483.753 393.083 479.425 393.565 475.121C393.963 471.592 394.515 468.089 395.222 464.61C399.077 445.737 407.354 428.047 419.373 412.994C426.247 413.377 432.271 412.33 432.853 399.008C432.956 396.639 434.714 394.587 435.101 392.252C434.445 392.338 433.778 392.392 433.122 392.435C432.917 392.446 432.702 392.457 432.498 392.468L432.421 392.471C431.699 392.503 430.984 392.326 430.361 391.962C429.738 391.597 429.234 391.06 428.909 390.416C428.584 389.771 428.452 389.046 428.53 388.328C428.607 387.61 428.89 386.93 429.345 386.37C429.628 386.021 429.912 385.673 430.196 385.324C430.626 384.786 431.067 384.259 431.497 383.721C431.547 383.67 431.594 383.616 431.637 383.56C432.132 382.947 432.627 382.344 433.122 381.731C432.218 380.329 431.003 379.155 429.572 378.299C424.612 375.395 417.77 377.406 414.188 381.892C410.595 386.378 409.917 392.672 411.165 398.277C412.392 403.046 414.422 407.572 417.168 411.66C416.899 412.004 416.619 412.337 416.35 412.682C411.434 419.004 407.149 425.792 403.557 432.95C404.573 425.011 392.145 396.342 387.339 390.269C381.566 382.975 369.728 386.158 368.711 395.405C368.701 395.494 368.691 395.584 368.682 395.673C369.396 396.076 370.094 396.504 370.778 396.956C371.637 397.53 372.303 398.35 372.688 399.308C373.073 400.267 373.159 401.319 372.936 402.328C372.712 403.336 372.189 404.254 371.435 404.96C370.682 405.666 369.732 406.129 368.711 406.286L368.606 406.302C359.051 419.946 389.684 455.457 397.352 447.484C393.743 457.711 391.479 468.365 390.617 479.176C390.129 485.555 390.158 491.962 390.703 498.336L390.671 498.11C388.967 484.228 359.74 463.588 351.205 465.307C346.288 466.297 341.445 466.072 342.192 471.032C342.204 471.111 342.216 471.19 342.228 471.269C343.553 471.809 344.843 472.43 346.09 473.13C346.804 473.533 347.503 473.961 348.186 474.413C349.045 474.987 349.711 475.807 350.096 476.765C350.481 477.724 350.567 478.776 350.344 479.785C350.12 480.793 349.598 481.711 348.844 482.417C348.09 483.124 347.14 483.586 346.119 483.743L346.015 483.759C345.939 483.77 345.875 483.781 345.8 483.792C341.45 498.758 373.707 522.912 393.317 515.226H393.328C395.272 523.671 398.087 531.891 401.73 539.754H431.745C431.852 539.421 431.949 539.076 432.046 538.743C429.268 538.918 426.479 538.751 423.741 538.248C425.968 535.516 428.195 532.762 430.421 530.029C430.471 529.978 430.518 529.924 430.561 529.868C431.691 528.469 432.831 527.081 433.961 525.683L433.961 525.681C434.022 521.394 433.53 517.118 432.498 512.956L432.497 512.956ZM398.126 445.343L398.142 445.321L398.126 445.364V445.343ZM391.478 505.275L391.22 504.694C391.23 504.275 391.23 503.855 391.22 503.425C391.22 503.306 391.198 503.188 391.198 503.07C391.295 503.812 391.381 504.554 391.489 505.297L391.478 505.275Z" fill="#3F3D56"/>
<path d="M95.2488 450.5C101.324 450.5 106.249 445.575 106.249 439.5C106.249 433.425 101.324 428.5 95.2488 428.5C89.1736 428.5 84.2488 433.425 84.2488 439.5C84.2488 445.575 89.1736 450.5 95.2488 450.5Z" fill="#3F3D56"/>
<path d="M227.249 570.5C233.324 570.5 238.249 565.575 238.249 559.5C238.249 553.425 233.324 548.5 227.249 548.5C221.174 548.5 216.249 553.425 216.249 559.5C216.249 565.575 221.174 570.5 227.249 570.5Z" fill="#3F3D56"/>
<path d="M728.249 570.5C734.324 570.5 739.249 565.575 739.249 559.5C739.249 553.425 734.324 548.5 728.249 548.5C722.174 548.5 717.249 553.425 717.249 559.5C717.249 565.575 722.174 570.5 728.249 570.5Z" fill="#3F3D56"/>
<path d="M755.249 430.5C761.324 430.5 766.249 425.575 766.249 419.5C766.249 413.425 761.324 408.5 755.249 408.5C749.174 408.5 744.249 413.425 744.249 419.5C744.249 425.575 749.174 430.5 755.249 430.5Z" fill="#3F3D56"/>
<path d="M723.249 328.5C729.324 328.5 734.249 323.575 734.249 317.5C734.249 311.425 729.324 306.5 723.249 306.5C717.174 306.5 712.249 311.425 712.249 317.5C712.249 323.575 717.174 328.5 723.249 328.5Z" fill="#3F3D56"/>
<path d="M264.249 419.5C264.242 422.31 263.156 425.009 261.214 427.04C259.272 429.071 256.624 430.278 253.817 430.411C251.011 430.544 248.26 429.592 246.136 427.754C244.011 425.915 242.674 423.33 242.402 420.534C242.13 417.737 242.944 414.943 244.675 412.73C246.406 410.516 248.921 409.053 251.701 408.643C254.481 408.232 257.312 408.906 259.608 410.525C261.905 412.144 263.491 414.584 264.039 417.34C264.18 418.051 264.25 418.775 264.249 419.5Z" fill="#3F3D56"/>
<path d="M484.249 360.5C490.324 360.5 495.249 355.575 495.249 349.5C495.249 343.425 490.324 338.5 484.249 338.5C478.174 338.5 473.249 343.425 473.249 349.5C473.249 355.575 478.174 360.5 484.249 360.5Z" fill="#3F3D56"/>
<path d="M375.249 349.5C375.242 352.31 374.156 355.009 372.214 357.04C370.272 359.071 367.624 360.278 364.817 360.411C362.011 360.544 359.26 359.592 357.136 357.754C355.011 355.915 353.674 353.33 353.402 350.534C353.13 347.737 353.944 344.943 355.675 342.73C357.406 340.516 359.921 339.053 362.701 338.643C365.481 338.232 368.312 338.906 370.608 340.525C372.905 342.144 374.491 344.584 375.039 347.34C375.18 348.051 375.25 348.775 375.249 349.5Z" fill="#3F3D56"/>
<path d="M233.249 317.5C233.242 320.31 232.156 323.009 230.214 325.04C228.272 327.071 225.624 328.278 222.817 328.411C220.011 328.544 217.26 327.592 215.136 325.754C213.011 323.915 211.674 321.33 211.402 318.534C211.13 315.737 211.944 312.943 213.675 310.73C215.406 308.516 217.921 307.053 220.701 306.643C223.481 306.232 226.312 306.906 228.608 308.525C230.905 310.144 232.491 312.584 233.039 315.34C233.18 316.051 233.25 316.775 233.249 317.5Z" fill="#3F3D56"/>
<path d="M599.249 454.5C605.324 454.5 610.249 449.575 610.249 443.5C610.249 437.425 605.324 432.5 599.249 432.5C593.174 432.5 588.249 437.425 588.249 443.5C588.249 449.575 593.174 454.5 599.249 454.5Z" fill="#3F3D56"/>
<path d="M426.249 354.5C435.085 354.5 442.249 347.337 442.249 338.5C442.249 329.663 435.085 322.5 426.249 322.5C417.412 322.5 410.249 329.663 410.249 338.5C410.249 347.337 417.412 354.5 426.249 354.5Z" fill="#3F3D56"/>
<path d="M858.941 571.341L1.19067 571.648C1.03431 571.648 0.879476 571.617 0.735016 571.557C0.590556 571.497 0.459305 571.41 0.34874 571.299C0.238175 571.189 0.150459 571.057 0.0906219 570.913C0.0307847 570.768 0 570.614 0 570.457C0 570.301 0.0307847 570.146 0.0906219 570.002C0.150459 569.857 0.238175 569.726 0.34874 569.615C0.459305 569.505 0.590556 569.417 0.735016 569.357C0.879476 569.297 1.03431 569.267 1.19067 569.267L858.941 568.959C859.256 568.96 859.558 569.086 859.78 569.309C860.003 569.532 860.128 569.835 860.128 570.15C860.128 570.465 860.003 570.767 859.78 570.991C859.558 571.214 859.256 571.34 858.941 571.341Z" fill="#CACACA"/>
</g>
<defs>
<clipPath id="clip0_3830_71">
<rect width="860.131" height="571.148" fill="white" transform="translate(0 0.5)"/>
</clipPath>
</defs>
</svg>
